<svg width="1280" height="720" xmlns="http://www.w3.org/2000/svg" xmlns:xlink="http://www.w3.org/1999/xlink" overflow="hidden"><g><rect x="0" y="0" width="1280" height="720" fill="#FFFFFF" fill-opacity="0.0705882"/><g><g><g><path d="M829.5 490.062C829.159 473.699 821.486 458.354 808.6 448.262 779.863 424.75 743.287 409.075 706.713 398.625 678.77 390.071 649.722 385.67 620.5 385.562 591.31 386.066 562.317 390.459 534.287 398.625 497.76 409.284 463.308 426.069 432.4 448.262 419.514 458.354 411.841 473.699 411.5 490.062L411.5 594.562 829.5 594.562Z" fill="#5B9BD5"/><path d="M600.906 227.18C617.887 217.187 659.688 184.923 659.688 184.923L659.688 184.923C666.283 185.494 672.559 188.018 677.714 192.172 690.257 200.98 700.879 212.246 708.933 225.286 716.183 236.128 722.387 244.879 724.282 247.492L724.282 247.492 725 248.406 725 248.406C728.266 241.875 728.135 223.653 725.849 207.063 722.649 184.204 720.036 177.412 705.406 165.133 696.084 156.685 683.643 152.537 671.117 153.703 654.122 140.515 633.648 132.571 612.205 130.844 579.549 129.668 543.888 146.715 528.736 166.7 505.811 196.744 508.358 216.338 508.358 223.326 508.358 230.315 500.325 242.463 505.942 242.463 509.599 242.463 513.192 242.463 516.849 242.463L516.849 242.463C537.553 241.875 579.81 239.589 600.906 227.18Z" fill="#5B9BD5"/><path d="M714.681 256.048C714.354 255.591 707.17 245.598 698.418 232.601 691.23 220.812 681.693 210.63 670.399 202.688 668.2 201.087 665.809 199.77 663.28 198.769 651.654 207.586 621.741 230.053 607.503 238.348 584.905 251.411 543.693 254.872 516.065 255.46 516.781 313.169 564.144 359.372 621.853 358.656 673.398 358.017 716.776 319.886 724.02 268.849Z" fill="#5B9BD5"/></g></g></g><g><g><g><path d="M640.833 423.125 649.75 391.917 596.25 391.917 605.167 423.125Z" fill="#D490D6"/><path d="M623 518.979 623 510.062 646.183 510.062 640.833 432.042 605.167 432.042 596.25 561.333 623 588.083 649.75 561.333 646.852 518.979Z" fill="#D490D6"/></g></g></g><path d="M596 391.5C596 386.806 607.417 383 621.5 383 635.583 383 647 386.806 647 391.5 647 396.194 635.583 400 621.5 400 607.417 400 596 396.194 596 391.5Z" fill="#D490D6" fill-rule="evenodd"/></g></svg>